<svg width="23" height="20" viewBox="0 0 23 20" fill="none" xmlns="http://www.w3.org/2000/svg">
<path d="M0 10C0 10.4996 0.196493 10.9788 0.546247 11.3321C0.896002 11.6853 1.37037 11.8838 1.865 11.8838L16.6358 11.8838L11.7371 16.832C11.4076 17.1891 11.2283 17.6614 11.2368 18.1494C11.2453 18.6375 11.4411 19.1031 11.7828 19.4482C12.1245 19.7934 12.5854 19.9911 13.0686 19.9997C13.5518 20.0083 14.0194 19.8272 14.3729 19.4944L22.4546 11.3312C22.8038 10.978 23 10.4992 23 10C23 9.50079 22.8038 9.02199 22.4546 8.66877L14.3729 0.505596C14.0194 0.17284 13.5518 -0.00831795 13.0686 0.000293732C12.5854 0.00890541 12.1245 0.206612 11.7828 0.551758C11.4411 0.896904 11.2453 1.36255 11.2368 1.85058C11.2283 2.33862 11.4076 2.81094 11.7371 3.16805L16.6358 8.11619L1.865 8.11619C1.37037 8.11619 0.896002 8.31466 0.546247 8.66795C0.196493 9.02123 0 9.50038 0 10Z" fill="white"/>
</svg>
