<svg width="53" height="55" viewBox="0 0 53 55" fill="none" xmlns="http://www.w3.org/2000/svg">
    <g filter="url(#filter0_i_101_4)">
    <path fill-rule="evenodd" clip-rule="evenodd" d="M26.5 54.6864C41.1355 54.6864 53 42.4444 53 27.3432C53 12.242 41.1355 0 26.5 0C26.1218 0 25.7455 0.00817378 25.3712 0.0243595C25.0859 0.00819293 24.7984 0 24.5091 0H7C3.13401 0 0 3.134 0 7V27.3432V47.6864C0 51.5524 3.13402 54.6864 7.00001 54.6864H24.5091C24.7984 54.6864 25.0859 54.6782 25.3712 54.662C25.7455 54.6782 26.1218 54.6864 26.5 54.6864ZM38.1823 26.7937L24.9341 12.2863L11.6858 26.7937H17.4774V45.0681V47.4728C17.4774 51.9214 13.9726 54.6863 13.9726 54.6863H23.1272H28.4272L30.8363 54.325C30.8363 54.325 32.7585 53.0035 32.7585 47.4728V45.0681V26.7937H38.1823Z" fill="#2E6DFE"/>
    </g>
    <defs>
    <filter id="filter0_i_101_4" x="0" y="0" width="53" height="61.6864" filterUnits="userSpaceOnUse" color-interpolation-filters="sRGB">
    <feFlood flood-opacity="0" result="BackgroundImageFix"/>
    <feBlend mode="normal" in="SourceGraphic" in2="BackgroundImageFix" result="shape"/>
    <feColorMatrix in="SourceAlpha" type="matrix" values="0 0 0 0 0 0 0 0 0 0 0 0 0 0 0 0 0 0 127 0" result="hardAlpha"/>
    <feOffset dy="7"/>
    <feGaussianBlur stdDeviation="4.5"/>
    <feComposite in2="hardAlpha" operator="arithmetic" k2="-1" k3="1"/>
    <feColorMatrix type="matrix" values="0 0 0 0 0.0588235 0 0 0 0 0.156863 0 0 0 0 0.317647 0 0 0 0.21 0"/>
    <feBlend mode="normal" in2="shape" result="effect1_innerShadow_101_4"/>
    </filter>
    </defs>
</svg>
